<svg width="25" height="25" viewBox="0 0 25 25" fill="none" xmlns="http://www.w3.org/2000/svg">
<path fill-rule="evenodd" clip-rule="evenodd" d="M12.5 22.5C15.1522 22.5 17.6957 21.4464 19.5711 19.5711C21.4464 17.6957 22.5 15.1522 22.5 12.5C22.5 9.84784 21.4464 7.3043 19.5711 5.42893C17.6957 3.55357 15.1522 2.5 12.5 2.5C9.84784 2.5 7.3043 3.55357 5.42893 5.42893C3.55357 7.3043 2.5 9.84784 2.5 12.5C2.5 15.1522 3.55357 17.6957 5.42893 19.5711C7.3043 21.4464 9.84784 22.5 12.5 22.5ZM11.9438 8.96C11.7555 8.8344 11.5367 8.76226 11.3106 8.75129C11.0846 8.74031 10.8598 8.7909 10.6603 8.89766C10.4608 9.00442 10.2939 9.16335 10.1777 9.35749C10.0614 9.55163 9.99997 9.7737 10 10V15C9.99997 15.2263 10.0614 15.4484 10.1777 15.6425C10.2939 15.8367 10.4608 15.9956 10.6603 16.1023C10.8598 16.2091 11.0846 16.2597 11.3106 16.2487C11.5367 16.2377 11.7555 16.1656 11.9438 16.04L15.6938 13.54C15.8649 13.4258 16.0053 13.2712 16.1024 13.0898C16.1995 12.9083 16.2503 12.7058 16.2503 12.5C16.2503 12.2942 16.1995 12.0917 16.1024 11.9102C16.0053 11.7288 15.8649 11.5742 15.6938 11.46L11.9438 8.96Z" fill="white"/>
</svg>
